<?xml version="1.0" encoding="UTF-8"?>
<svg id="Layer_2" data-name="Layer 2" xmlns="http://www.w3.org/2000/svg" viewBox="0 0 160.63 36.73">
  <defs>
    <style>
      .cls-1 {
        fill: #e8e3df;
      }
    </style>
  </defs>
  <g id="Layer_1-2" data-name="Layer 1">
    <g>
      <path class="cls-1" d="M45.08,12.63c-.43-.27-.91-.46-1.43-.57-.49-.1-.97-.15-1.4-.15h-4.01v12.93h2.44v-5.49h1.82c.51,0,1.02-.07,1.5-.21.5-.14.95-.36,1.34-.66.4-.31.73-.7.97-1.18.24-.48.36-1.03.36-1.66,0-.72-.15-1.34-.44-1.84-.29-.49-.66-.88-1.12-1.17ZM44.21,15.64c0,.26-.05.48-.13.64h0c-.09.17-.2.3-.34.39-.16.11-.35.19-.56.24-.24.06-.48.09-.74.09h-1.77v-2.76h1.7c.25,0,.51.03.76.1.22.05.41.14.57.26.15.11.27.25.37.43.09.16.13.36.13.61Z"/>
      <polygon class="cls-1" points="55.15 17 50.04 17 50.04 11.9 47.6 11.9 47.6 24.83 50.04 24.83 50.04 19.34 55.15 19.34 55.15 24.83 57.59 24.83 57.59 11.9 55.15 11.9 55.15 17"/>
      <path class="cls-1" d="M70.11,13.54c-.59-.61-1.3-1.09-2.12-1.43-1.64-.68-3.73-.68-5.37,0-.82.34-1.53.82-2.11,1.42-.58.6-1.04,1.32-1.37,2.15-.32.82-.49,1.72-.49,2.68s.16,1.86.49,2.69c.33.83.79,1.55,1.37,2.15.59.6,1.3,1.08,2.12,1.41.82.33,1.72.5,2.68.5s1.86-.17,2.68-.5c.82-.33,1.53-.81,2.12-1.41.58-.6,1.04-1.32,1.37-2.15.32-.83.49-1.73.49-2.69s-.16-1.86-.49-2.69c-.33-.82-.79-1.55-1.37-2.14ZM63.54,22.45c-.52-.22-.96-.53-1.31-.91-.36-.39-.64-.86-.84-1.39-.2-.55-.3-1.14-.3-1.78s.1-1.23.3-1.77c.2-.53.48-1,.84-1.39.35-.39.8-.69,1.31-.91.51-.22,1.11-.34,1.76-.34s1.25.11,1.77.34c.51.22.96.53,1.31.91.36.39.64.86.84,1.39.2.55.3,1.14.3,1.78s-.1,1.23-.3,1.78c-.2.53-.48,1-.84,1.39-.36.38-.8.69-1.32.91-1.03.45-2.5.45-3.53,0Z"/>
      <polygon class="cls-1" points="81.99 11.9 71.64 11.9 71.64 14.24 75.59 14.24 75.59 24.83 78.03 24.83 78.03 14.24 81.99 14.24 81.99 11.9"/>
      <path class="cls-1" d="M93.12,13.54c-.59-.61-1.3-1.09-2.12-1.43-1.64-.68-3.73-.68-5.37,0-.82.34-1.53.82-2.11,1.42-.58.6-1.04,1.32-1.37,2.15-.32.82-.49,1.72-.49,2.68s.16,1.86.49,2.69c.33.83.79,1.55,1.37,2.15.59.6,1.3,1.08,2.12,1.41.82.33,1.72.5,2.68.5s1.86-.17,2.68-.5c.82-.33,1.53-.81,2.12-1.41.58-.6,1.04-1.32,1.37-2.15.32-.83.49-1.73.49-2.69s-.16-1.86-.49-2.69c-.33-.82-.79-1.55-1.37-2.14ZM86.55,22.45c-.52-.22-.96-.53-1.31-.91-.36-.39-.64-.86-.84-1.39-.2-.55-.3-1.14-.3-1.78s.1-1.23.3-1.77c.2-.53.48-1,.84-1.39.35-.39.8-.69,1.31-.91.51-.22,1.11-.34,1.76-.34s1.25.11,1.77.34c.51.22.96.53,1.31.91.36.39.64.86.84,1.39.2.55.3,1.14.3,1.78s-.1,1.23-.3,1.78c-.2.53-.48,1-.84,1.39-.36.38-.8.69-1.32.91-1.03.45-2.5.45-3.53,0Z"/>
      <path class="cls-1" d="M98.86,15.2c.35-.39.8-.69,1.31-.91.73-.31,1.65-.45,2.58-.25.28.06.56.15.82.26.26.11.49.24.7.39.2.14.38.3.52.46l.49.58,1.77-1.84-.47-.47c-1.19-1.2-2.75-1.81-4.65-1.81-.97,0-1.87.17-2.69.51-.82.34-1.53.82-2.11,1.42-.58.6-1.04,1.32-1.37,2.15-.32.82-.49,1.72-.49,2.68s.16,1.86.49,2.69c.33.83.79,1.55,1.37,2.15.59.6,1.3,1.08,2.12,1.41.82.33,1.72.5,2.68.5.79,0,1.58-.09,2.36-.25.79-.18,1.56-.47,2.29-.88l.35-.2v-6.57h-5.22v2.34h2.78v2.79c-.29.13-.6.23-.93.28-1.05.19-2.42.22-3.39-.2-.52-.22-.96-.53-1.31-.91-.36-.39-.64-.86-.84-1.39-.2-.55-.3-1.14-.3-1.78s.1-1.23.3-1.77c.2-.53.48-1,.84-1.39Z"/>
      <path class="cls-1" d="M136.48,12.63c-.43-.27-.91-.46-1.43-.57-.49-.1-.97-.15-1.4-.15h-4.01v12.83l-5.4-12.83h-2.01l-4.96,11.37-2.55-4.22s.09-.03.12-.04c.43-.13.82-.34,1.17-.61.36-.28.67-.65.91-1.1.24-.46.36-1.03.36-1.69,0-.6-.1-1.12-.31-1.57-.2-.43-.47-.8-.78-1.08-.32-.29-.68-.51-1.07-.66-.36-.14-.71-.23-1.06-.3-.34-.06-.65-.1-.94-.11-.27-.01-.49-.02-.65-.02h-3.72v12.93h2.44v-5.49h.94l3.25,5.49h3.81l1.31-3.07h5.22l1.26,3.07h5.09v-5.49h1.82c.51,0,1.02-.07,1.5-.21.5-.14.95-.36,1.34-.66.4-.31.73-.7.97-1.18.24-.48.36-1.03.36-1.66,0-.72-.15-1.34-.44-1.84-.29-.49-.66-.88-1.12-1.17ZM121.5,19.42l1.66-3.9,1.61,3.9h-3.27ZM114.75,16.08c-.04.14-.12.27-.24.4-.13.14-.32.26-.58.36-.27.11-.65.16-1.13.16h-1.61v-2.76h1.61c.48,0,.86.06,1.13.16.26.1.46.22.58.36.12.13.2.26.24.39.05.18.08.34.08.47s-.03.28-.08.46ZM135.61,15.64c0,.26-.05.48-.13.64h0c-.09.17-.2.3-.34.39-.16.11-.35.19-.56.24-.24.06-.48.09-.74.09h-1.77v-2.76h1.7c.25,0,.51.03.76.1.22.05.41.14.57.26.15.11.27.25.37.43.09.16.13.36.13.61Z"/>
      <polygon class="cls-1" points="157.8 11.9 154.59 16.81 151.46 11.9 148.99 11.9 148.55 11.9 146.55 11.9 146.55 17 141.44 17 141.44 11.9 139 11.9 139 24.83 141.44 24.83 141.44 19.34 146.55 19.34 146.55 24.83 148.99 24.83 148.99 12.59 153.37 19.37 153.37 24.83 155.81 24.83 155.81 19.37 160.63 11.9 157.8 11.9"/>
    </g>
    <path class="cls-1" d="M29.58,0H10.99C7.07,0,3.45,2.19,1.71,5.7c-.87,1.77-1.36,3.85-1.36,6.16,0,7.28,4.84,12.77,11.26,12.77h8.25c1.29,0,2.34-1.05,2.34-2.34v-5.97c0-1.29-1.05-2.34-2.34-2.34h-11.28c-1.76,0-2.95-1.88-2.12-3.43.41-.77,1.2-1.23,2.05-1.23h15.81c1.29,0,2.34,1.05,2.34,2.34v15.28c0,1.29-1.05,2.34-2.34,2.34h-12.71C7.08,29.29,2.83,27.38.02,24.21c0,0-.02,0-.02,0v12.51s0,0,0,0h32.03s0,0,0,0V2.47c0-1.36-1.11-2.47-2.47-2.47Z"/>
  </g>
</svg>