<?xml version="1.0" encoding="UTF-8"?>
<svg id="Layer_2" data-name="Layer 2" xmlns="http://www.w3.org/2000/svg" viewBox="0 0 291.88 334.51">
  <defs>
    <style>
      .cls-1 {
        fill: #231f20;
      }
    </style>
  </defs>
  <g id="Layer_1-2" data-name="Layer 1">
    <g>
      <path class="cls-1" d="M180.79,298.56c0-.28-.06-.62-.18-1.02-.09-.29-.26-.57-.53-.86-.28-.29-.71-.56-1.28-.78-.59-.24-1.43-.36-2.48-.36h-3.46s-.08.04-.08.08v5.9s.04.08.08.08h3.46c1.05,0,1.88-.12,2.48-.36.57-.22,1-.49,1.28-.79.27-.28.44-.57.54-.87.11-.39.17-.73.17-1.01Z"/>
      <path class="cls-1" d="M195.6,306.91h6.94c.06,0,.1-.06.08-.11l-3.42-8.28c-.03-.07-.12-.07-.15,0l-3.52,8.28c-.02.05.02.11.07.11Z"/>
      <path class="cls-1" d="M78.65,297.64c-.78-.84-1.76-1.52-2.89-2.01-1.13-.49-2.44-.74-3.88-.74s-2.75.25-3.88.74c-1.14.49-2.11,1.16-2.89,2.01-.8.85-1.42,1.88-1.85,3.06-.44,1.19-.66,2.5-.66,3.9s.22,2.71.66,3.91c.43,1.17,1.06,2.2,1.85,3.05.78.85,1.75,1.52,2.89,2.01,2.27.98,5.5.98,7.76,0,1.13-.49,2.11-1.17,2.9-2.01.79-.85,1.41-1.88,1.84-3.05.44-1.2.66-2.51.66-3.91s-.22-2.71-.66-3.91c-.43-1.17-1.05-2.19-1.85-3.05Z"/>
      <path class="cls-1" d="M129.26,297.64c-.78-.84-1.76-1.52-2.89-2.01-1.13-.49-2.44-.74-3.88-.74s-2.75.25-3.88.74c-1.14.49-2.11,1.16-2.89,2.01-.8.85-1.42,1.88-1.85,3.06-.44,1.19-.66,2.5-.66,3.9s.22,2.71.66,3.91c.43,1.17,1.06,2.2,1.85,3.05.78.85,1.75,1.52,2.89,2.01,2.27.98,5.5.98,7.76,0,1.13-.49,2.11-1.17,2.9-2.01.79-.85,1.41-1.88,1.84-3.05.44-1.2.66-2.51.66-3.91s-.22-2.71-.66-3.91c-.43-1.17-1.05-2.19-1.85-3.05Z"/>
      <path class="cls-1" d="M100.05,0C64.36,0,31.41,19.92,15.57,51.9c-7.97,16.08-12.36,35.08-12.36,56.14,0,66.29,44.07,116.29,102.5,116.29h75.09c11.76,0,21.29-9.53,21.29-21.29v-54.33c0-11.76-9.53-21.29-21.29-21.29h-102.68c-16.03,0-26.88-17.08-19.31-31.21,3.74-6.98,10.96-11.22,18.71-11.22h143.97c11.76,0,21.29,9.53,21.29,21.29v139.17c0,11.76-9.53,21.29-21.29,21.29h-115.78c-41.22,0-79.92-17.42-105.57-46.31-.05-.06-.14-.02-.14.05v113.93s.04.08.08.08h291.72s.08-.04.08-.08V22.5C291.88,10.07,281.81,0,269.39,0H100.05ZM30.04,302.25c-.53,1.05-1.24,1.92-2.12,2.59-.86.65-1.85,1.14-2.94,1.45-1.06.3-2.17.46-3.3.46h-3.93s-.08.04-.08.08v11.91s-.04.08-.08.08h-5.2s-.08-.04-.08-.08v-28.28s.04-.08.08-.08h8.75c.97,0,2.01.11,3.09.33,1.15.25,2.21.67,3.15,1.26,1.01.64,1.84,1.5,2.47,2.57.65,1.1.98,2.46.98,4.05,0,1.37-.26,2.6-.78,3.65ZM54.83,318.82h-5.21s-.08-.04-.08-.08v-11.91s-.04-.08-.08-.08h-11.07s-.08.04-.08.08v11.91s-.04.08-.08.08h-5.2s-.08-.04-.08-.08v-28.28s.04-.08.08-.08h5.2s.08.04.08.08v11.05s.04.08.08.08h11.07s.08-.04.08-.08v-11.05s.04-.08.08-.08h5.21s.08.04.08.08v28.28s-.04.08-.08.08ZM85.46,310.52c-.73,1.83-1.74,3.42-3.01,4.74-1.3,1.33-2.87,2.38-4.66,3.11-1.8.73-3.78,1.1-5.9,1.1s-4.1-.37-5.9-1.1c-1.8-.73-3.37-1.78-4.66-3.11-1.28-1.32-2.29-2.91-3.02-4.74-.71-1.83-1.08-3.82-1.08-5.93s.36-4.1,1.08-5.9c.73-1.83,1.74-3.41,3.02-4.72,1.29-1.33,2.85-2.38,4.65-3.12,3.6-1.5,8.21-1.49,11.82,0,1.8.75,3.36,1.8,4.66,3.14,1.28,1.31,2.29,2.9,3.01,4.71.71,1.81,1.08,3.8,1.08,5.91s-.36,4.1-1.08,5.92ZM99.79,318.82h-5.2s-.08-.04-.08-.08v-23.13s-.04-.08-.08-.08h-8.54s-.08-.04-.08-.08v-4.99s.04-.08.08-.08h22.6s.08.04.08.08v4.99s-.04.08-.08.08h-8.54s-.08.04-.08.08v23.13s-.04.08-.08.08ZM136.06,310.52c-.73,1.83-1.74,3.42-3.01,4.74-1.3,1.33-2.87,2.38-4.66,3.11-1.8.73-3.78,1.1-5.9,1.1s-4.1-.37-5.9-1.1c-1.8-.73-3.37-1.78-4.66-3.11-1.28-1.32-2.29-2.91-3.02-4.74-.71-1.83-1.08-3.82-1.08-5.93s.36-4.1,1.08-5.9c.73-1.83,1.74-3.41,3.02-4.72,1.29-1.33,2.85-2.38,4.65-3.12,3.6-1.5,8.21-1.49,11.82,0,1.8.75,3.36,1.8,4.66,3.14,1.28,1.31,2.29,2.9,3.01,4.71.71,1.81,1.08,3.8,1.08,5.91s-.36,4.1-1.08,5.92ZM143.83,308.51c.43,1.17,1.06,2.2,1.85,3.05.78.85,1.75,1.52,2.89,2.01,2.14.92,5.14.87,7.46.44.71-.13,1.38-.33,2-.6.03-.01.05-.04.05-.08v-6.01s-.04-.08-.08-.08h-5.95s-.08-.04-.08-.08v-4.99s.04-.08.08-.08h11.31s.08.04.08.08v14.36l-.76.43c-1.6.91-3.29,1.56-5.03,1.94-1.71.37-3.45.56-5.19.56-2.12,0-4.1-.37-5.9-1.1-1.8-.73-3.37-1.78-4.66-3.11-1.28-1.32-2.29-2.91-3.02-4.74-.71-1.83-1.08-3.82-1.08-5.93s.36-4.1,1.08-5.9c.73-1.83,1.74-3.41,3.02-4.72,1.29-1.33,2.85-2.38,4.65-3.12,1.8-.75,3.78-1.12,5.91-1.12,4.18,0,7.62,1.33,10.23,3.97l.97.98s.03.08,0,.11l-3.77,3.93s-.09.03-.12,0l-1.01-1.2c-.31-.36-.69-.7-1.14-1.01-.46-.33-.98-.61-1.55-.85-.58-.24-1.18-.43-1.81-.57-2.05-.45-4.08-.14-5.68.54-1.14.49-2.11,1.16-2.89,2.01-.8.85-1.42,1.88-1.85,3.06-.44,1.19-.66,2.5-.66,3.9s.22,2.71.66,3.91ZM231.09,302.25c-.53,1.05-1.24,1.92-2.12,2.59-.86.65-1.85,1.14-2.94,1.45-1.06.3-2.17.46-3.3.46h-3.93s-.08.04-.08.08v11.91s-.04.08-.08.08h-11.06s-.06-.02-.08-.05l-2.73-6.66s-.04-.05-.08-.05h-11.37s-.06.02-.07.05l-2.83,6.66s-.04.05-.07.05h-8.29s-.06-.02-.07-.04l-7.11-11.99s-.04-.04-.07-.04h-1.94s-.08.04-.08.08v11.91s-.04.08-.08.08h-5.2s-.08-.04-.08-.08v-28.28s.04-.08.08-.08h8.1c.35,0,.82.01,1.42.04.64.03,1.33.11,2.07.24.77.14,1.54.35,2.32.65.86.32,1.65.81,2.35,1.44.68.62,1.26,1.42,1.71,2.37.46.98.68,2.14.68,3.45,0,1.46-.27,2.71-.8,3.71-.53.99-1.2,1.8-2,2.42-.81.63-1.73,1.1-2.74,1.38l-.05.13,5.49,9.05c.03.06.12.05.14,0l10.83-24.82s.04-.05.07-.05h4.32s.06.02.07.05l11.7,27.8c.03.08.16.06.16-.03v-27.74s.04-.08.08-.08h8.75c.97,0,2.01.11,3.09.33,1.15.25,2.21.67,3.15,1.26,1.01.64,1.84,1.5,2.47,2.57.65,1.1.98,2.46.98,4.05,0,1.37-.26,2.6-.78,3.65ZM270.94,306.82v11.92s-.04.08-.08.08h-5.2s-.08-.04-.08-.08v-11.92s0-.03-.01-.04l-9.46-14.65c-.04-.07-.15-.04-.15.04v26.57s-.04.08-.08.08h-5.21s-.08-.04-.08-.08v-11.91s-.04-.08-.08-.08h-11.08s-.08.04-.08.08v11.91s-.04.08-.08.08h-5.2s-.08-.04-.08-.08v-28.28s.04-.08.08-.08h5.2s.08.04.08.08v11.05s.04.08.08.08h11.08s.08-.04.08-.08v-11.05s.04-.08.08-.08h10.68s.05.01.07.04l6.79,10.66s.1.05.14,0l6.95-10.66s.04-.04.07-.04h6.03c.06,0,.1.07.07.13l-10.51,16.27s-.01.03-.01.04Z"/>
      <path class="cls-1" d="M24.34,296.31c-.36-.26-.78-.45-1.26-.57-.55-.14-1.11-.21-1.66-.21h-3.67s-.08.04-.08.08v5.9s.04.08.08.08h3.81c.56,0,1.09-.06,1.63-.19.47-.11.87-.29,1.23-.53.31-.21.56-.49.75-.86h0c.19-.36.29-.83.29-1.41s-.1-1-.29-1.35c-.22-.39-.49-.7-.82-.94Z"/>
      <path class="cls-1" d="M225.39,296.31c-.36-.26-.78-.45-1.26-.57-.55-.14-1.11-.21-1.66-.21h-3.67s-.08.04-.08.08v5.9s.04.08.08.08h3.81c.56,0,1.09-.06,1.63-.19.47-.11.87-.29,1.23-.53.31-.21.56-.49.75-.86h0c.19-.36.29-.83.29-1.41s-.1-1-.29-1.35c-.22-.39-.49-.7-.82-.94Z"/>
    </g>
  </g>
</svg>