<?xml version="1.0" encoding="UTF-8"?>
<svg id="Layer_2" data-name="Layer 2" xmlns="http://www.w3.org/2000/svg" viewBox="0 0 145.57 104.09">
  <defs>
    <style>
      .cls-1 {
        fill: #003357;
      }

      .cls-2 {
        fill: #c49030;
      }
    </style>
  </defs>
  <g id="Layer_1-2" data-name="Layer 1">
    <g>
      <path class="cls-2" d="M80.45,65.67c0-.06-.01-.14-.04-.23-.02-.06-.06-.13-.12-.19-.06-.06-.16-.12-.28-.17-.13-.05-.31-.08-.55-.08h-.76s-.02,0-.02.02v1.3s0,.02.02.02h.76c.23,0,.41-.03.55-.08.12-.05.22-.11.28-.17.06-.06.1-.12.12-.19.02-.08.04-.16.04-.22Z"/>
      <path class="cls-2" d="M83.71,67.5h1.53s.02-.01.02-.02l-.75-1.82s-.03-.01-.03,0l-.77,1.82s0,.02.02.02Z"/>
      <path class="cls-2" d="M57.99,65.46c-.17-.19-.39-.33-.64-.44-.25-.11-.54-.16-.85-.16s-.6.06-.85.16c-.25.11-.46.26-.64.44-.17.19-.31.41-.41.67-.1.26-.15.55-.15.86s.05.6.15.86c.1.26.23.48.41.67.17.19.39.33.64.44.5.22,1.21.22,1.71,0,.25-.11.46-.26.64-.44.17-.19.31-.41.41-.67.1-.26.15-.55.15-.86s-.05-.6-.15-.86c-.1-.26-.23-.48-.41-.67Z"/>
      <path class="cls-2" d="M69.12,65.46c-.17-.19-.39-.33-.64-.44-.25-.11-.54-.16-.85-.16s-.6.06-.85.16c-.25.11-.46.26-.64.44-.17.19-.31.41-.41.67-.1.26-.15.55-.15.86s.05.6.15.86c.1.26.23.48.41.67.17.19.39.33.64.44.5.22,1.21.22,1.71,0,.25-.11.46-.26.64-.44.17-.19.31-.41.41-.67.1-.26.15-.55.15-.86s-.05-.6-.15-.86c-.1-.26-.23-.48-.41-.67Z"/>
      <path class="cls-2" d="M62.69,0c-7.85,0-15.1,4.38-18.58,11.41-1.75,3.54-2.72,7.72-2.72,12.35,0,14.58,9.69,25.58,22.54,25.58h16.52c2.59,0,4.68-2.1,4.68-4.68v-11.95c0-2.59-2.1-4.68-4.68-4.68h-22.58c-3.53,0-5.91-3.76-4.25-6.86.82-1.54,2.41-2.47,4.12-2.47h31.67c2.59,0,4.68,2.1,4.68,4.68v30.61c0,2.59-2.1,4.68-4.68,4.68h-25.47c-9.07,0-17.58-3.83-23.22-10.18-.01-.01-.03,0-.03.01v25.06s0,.02.02.02h64.16s.02,0,.02-.02V4.95C104.89,2.22,102.67,0,99.94,0h-37.25ZM47.3,66.48c-.12.23-.27.42-.47.57-.19.14-.41.25-.65.32-.23.07-.48.1-.73.1h-.86s-.02,0-.02.02v2.62s0,.02-.02.02h-1.14s-.02,0-.02-.02v-6.22s0-.02.02-.02h1.92c.21,0,.44.02.68.07.25.05.49.15.69.28.22.14.41.33.54.57.14.24.21.54.21.89,0,.3-.06.57-.17.8ZM52.75,70.12h-1.15s-.02,0-.02-.02v-2.62s0-.02-.02-.02h-2.44s-.02,0-.02.02v2.62s0,.02-.02.02h-1.14s-.02,0-.02-.02v-6.22s0-.02.02-.02h1.14s.02,0,.02.02v2.43s0,.02.02.02h2.44s.02,0,.02-.02v-2.43s0-.02.02-.02h1.15s.02,0,.02.02v6.22s0,.02-.02.02ZM59.48,68.3c-.16.4-.38.75-.66,1.04-.29.29-.63.52-1.03.68-.4.16-.83.24-1.3.24s-.9-.08-1.3-.24c-.4-.16-.74-.39-1.03-.68-.28-.29-.5-.64-.66-1.04-.16-.4-.24-.84-.24-1.3s.08-.9.24-1.3c.16-.4.38-.75.66-1.04.28-.29.63-.52,1.02-.69.79-.33,1.81-.33,2.6,0,.4.16.74.4,1.02.69.28.29.5.64.66,1.04.16.4.24.84.24,1.3s-.08.9-.24,1.3ZM62.64,70.12h-1.14s-.02,0-.02-.02v-5.09s0-.02-.02-.02h-1.88s-.02,0-.02-.02v-1.1s0-.02.02-.02h4.97s.02,0,.02.02v1.1s0,.02-.02.02h-1.88s-.02,0-.02.02v5.09s0,.02-.02.02ZM70.61,68.3c-.16.4-.38.75-.66,1.04-.29.29-.63.52-1.03.68-.4.16-.83.24-1.3.24s-.9-.08-1.3-.24c-.4-.16-.74-.39-1.03-.68-.28-.29-.5-.64-.66-1.04-.16-.4-.24-.84-.24-1.3s.08-.9.24-1.3c.16-.4.38-.75.66-1.04.28-.29.63-.52,1.02-.69.79-.33,1.81-.33,2.6,0,.4.16.74.4,1.02.69.28.29.5.64.66,1.04.16.4.24.84.24,1.3s-.08.9-.24,1.3ZM72.32,67.85c.1.26.23.48.41.67.17.19.39.33.64.44.47.2,1.13.19,1.64.1.16-.03.3-.07.44-.13,0,0,.01,0,.01-.02v-1.32s0-.02-.02-.02h-1.31s-.02,0-.02-.02v-1.1s0-.02.02-.02h2.49s.02,0,.02.02v3.16l-.17.1c-.35.2-.72.34-1.11.43-.38.08-.76.12-1.14.12-.47,0-.9-.08-1.3-.24-.4-.16-.74-.39-1.03-.68-.28-.29-.5-.64-.66-1.04-.16-.4-.24-.84-.24-1.3s.08-.9.24-1.3c.16-.4.38-.75.66-1.04.28-.29.63-.52,1.02-.69.4-.16.83-.25,1.3-.25.92,0,1.68.29,2.25.87l.21.22s0,.02,0,.02l-.83.86s-.02,0-.03,0l-.22-.26c-.07-.08-.15-.15-.25-.22-.1-.07-.22-.14-.34-.19-.13-.05-.26-.09-.4-.12-.45-.1-.9-.03-1.25.12-.25.11-.46.26-.64.44-.17.19-.31.41-.41.67-.1.26-.15.55-.15.86s.05.6.15.86ZM91.51,66.48c-.12.23-.27.42-.47.57-.19.14-.41.25-.65.32-.23.07-.48.1-.73.1h-.86s-.02,0-.02.02v2.62s0,.02-.02.02h-2.43s-.01,0-.02-.01l-.6-1.46s0-.01-.02-.01h-2.5s-.01,0-.02.01l-.62,1.46s0,.01-.02.01h-1.82s-.01,0-.02,0l-1.56-2.64s0,0-.02,0h-.43s-.02,0-.02.02v2.62s0,.02-.02.02h-1.14s-.02,0-.02-.02v-6.22s0-.02.02-.02h1.78c.08,0,.18,0,.31,0,.14,0,.29.02.46.05.17.03.34.08.51.14.19.07.36.18.52.32.15.14.28.31.38.52.1.21.15.47.15.76,0,.32-.06.6-.17.82-.12.22-.26.4-.44.53-.18.14-.38.24-.6.3v.03s1.2,1.99,1.2,1.99c0,.01.03.01.03,0l2.38-5.46s0-.01.02-.01h.95s.01,0,.02.01l2.57,6.11s.03.01.03,0v-6.1s0-.02.02-.02h1.92c.21,0,.44.02.68.07.25.05.49.15.69.28.22.14.41.33.54.57.14.24.21.54.21.89,0,.3-.06.57-.17.8ZM100.28,67.48v2.62s0,.02-.02.02h-1.14s-.02,0-.02-.02v-2.62s0,0,0,0l-2.08-3.22s-.03,0-.03,0v5.84s0,.02-.02.02h-1.15s-.02,0-.02-.02v-2.62s0-.02-.02-.02h-2.44s-.02,0-.02.02v2.62s0,.02-.02.02h-1.14s-.02,0-.02-.02v-6.22s0-.02.02-.02h1.14s.02,0,.02.02v2.43s0,.02.02.02h2.44s.02,0,.02-.02v-2.43s0-.02.02-.02h2.35s.01,0,.02,0l1.49,2.34s.02.01.03,0l1.53-2.35s0,0,.01,0h1.33s.02.02.01.03l-2.31,3.58s0,0,0,0Z"/>
      <path class="cls-2" d="M46.04,65.17c-.08-.06-.17-.1-.28-.12-.12-.03-.24-.05-.37-.05h-.81s-.02,0-.02.02v1.3s0,.02.02.02h.84c.12,0,.24-.01.36-.04.1-.02.19-.06.27-.12.07-.05.12-.11.16-.19h0c.04-.08.06-.18.06-.31s-.02-.22-.06-.3c-.05-.09-.11-.15-.18-.21Z"/>
      <path class="cls-2" d="M90.26,65.17c-.08-.06-.17-.1-.28-.12-.12-.03-.24-.05-.37-.05h-.81s-.02,0-.02.02v1.3s0,.02.02.02h.84c.12,0,.24-.01.36-.04.1-.02.19-.06.27-.12.07-.05.12-.11.16-.19h0c.04-.08.06-.18.06-.31s-.02-.22-.06-.3c-.05-.09-.11-.15-.18-.21Z"/>
    </g>
    <rect class="cls-2" x="42.16" y="62.04" width="61.25" height="9.65"/>
    <g>
      <path class="cls-1" d="M8.15,89.23c-.51-.32-1.08-.55-1.7-.68-.59-.12-1.15-.18-1.67-.18H0v15.38h2.9v-6.53h2.17c.61,0,1.21-.08,1.78-.25.59-.17,1.13-.43,1.59-.78.48-.36.86-.84,1.15-1.4.28-.57.42-1.23.42-1.97,0-.86-.18-1.59-.53-2.19-.34-.58-.79-1.05-1.34-1.39ZM7.11,92.81c0,.31-.05.57-.15.76h0c-.1.2-.24.35-.4.47-.19.13-.41.23-.66.29-.29.07-.58.1-.88.1h-2.11v-3.28h2.03c.3,0,.6.04.9.11.26.06.49.16.68.31.18.13.33.29.45.51.1.19.16.43.16.73Z"/>
      <polygon class="cls-1" points="20.13 94.43 14.06 94.43 14.06 88.36 11.16 88.36 11.16 103.74 14.06 103.74 14.06 97.21 20.13 97.21 20.13 103.74 23.04 103.74 23.04 88.36 20.13 88.36 20.13 94.43"/>
      <path class="cls-1" d="M37.92,90.31c-.7-.72-1.55-1.29-2.52-1.7-1.95-.8-4.44-.81-6.39,0-.97.4-1.82.97-2.51,1.69-.69.71-1.24,1.57-1.63,2.55-.39.97-.58,2.05-.58,3.19s.2,2.22.58,3.2c.39.99.94,1.85,1.63,2.56.7.72,1.55,1.28,2.52,1.68.97.4,2.04.59,3.19.59s2.22-.2,3.19-.59c.97-.4,1.82-.96,2.52-1.68.69-.71,1.24-1.57,1.63-2.56.39-.98.58-2.06.58-3.2s-.2-2.22-.58-3.19c-.39-.98-.94-1.84-1.63-2.55ZM30.11,100.91c-.61-.27-1.14-.63-1.56-1.09-.43-.46-.77-1.02-1-1.65-.24-.65-.36-1.36-.36-2.11s.12-1.46.36-2.11c.23-.64.57-1.19,1-1.65.42-.46.95-.82,1.56-1.09.61-.27,1.32-.4,2.1-.4s1.49.14,2.1.4c.61.27,1.14.63,1.56,1.09.43.46.77,1.02,1,1.65.24.65.36,1.36.36,2.11s-.12,1.46-.36,2.11c-.23.63-.57,1.19-1,1.65-.43.46-.96.82-1.57,1.09-1.22.53-2.97.53-4.2,0Z"/>
      <polygon class="cls-1" points="52.05 88.36 39.74 88.36 39.74 91.15 44.44 91.15 44.44 103.74 47.35 103.74 47.35 91.15 52.05 91.15 52.05 88.36"/>
      <path class="cls-1" d="M65.29,90.31c-.7-.72-1.55-1.29-2.52-1.7-1.95-.8-4.44-.81-6.39,0-.97.4-1.82.97-2.51,1.69-.69.71-1.24,1.57-1.63,2.55-.39.97-.58,2.05-.58,3.19s.2,2.22.58,3.2c.39.99.94,1.85,1.63,2.56.7.72,1.55,1.28,2.52,1.68.97.4,2.04.59,3.19.59s2.22-.2,3.19-.59c.97-.4,1.82-.96,2.52-1.68.69-.71,1.24-1.57,1.63-2.56.39-.98.58-2.06.58-3.2s-.2-2.22-.58-3.19c-.39-.98-.94-1.84-1.63-2.55ZM57.47,100.91c-.61-.27-1.14-.63-1.56-1.09-.43-.46-.77-1.02-1-1.65-.24-.65-.36-1.36-.36-2.11s.12-1.46.36-2.11c.23-.64.57-1.19,1-1.65.42-.46.95-.82,1.56-1.09.61-.27,1.32-.4,2.1-.4s1.49.14,2.1.4c.61.27,1.14.63,1.56,1.09.43.46.77,1.02,1,1.65.24.65.36,1.36.36,2.11s-.12,1.46-.36,2.11c-.23.63-.57,1.19-1,1.65-.43.46-.96.82-1.57,1.09-1.22.53-2.97.53-4.2,0Z"/>
      <path class="cls-1" d="M72.12,92.29c.42-.46.95-.82,1.56-1.09.87-.37,1.96-.54,3.07-.29.34.08.66.18.98.31.31.13.59.28.84.46.24.17.45.35.62.55l.58.69,2.1-2.19-.56-.56c-1.41-1.43-3.27-2.15-5.53-2.15-1.15,0-2.22.2-3.19.61-.97.4-1.82.97-2.51,1.69-.69.71-1.24,1.57-1.63,2.55-.39.97-.58,2.05-.58,3.19s.2,2.22.58,3.2c.39.99.94,1.85,1.63,2.56.7.72,1.55,1.28,2.52,1.68.97.4,2.04.59,3.19.59.94,0,1.89-.1,2.81-.3.94-.21,1.86-.56,2.72-1.05l.41-.23v-7.81h-6.21v2.79h3.31v3.32c-.34.15-.71.27-1.11.34-1.25.23-2.88.26-4.03-.24-.61-.27-1.14-.63-1.56-1.09-.43-.46-.77-1.02-1-1.65-.24-.65-.36-1.36-.36-2.11s.12-1.46.36-2.11c.23-.64.57-1.19,1-1.65Z"/>
      <path class="cls-1" d="M116.85,89.23c-.51-.32-1.08-.55-1.7-.68-.59-.12-1.15-.18-1.67-.18h-4.77v15.26l-6.42-15.26h-2.39l-5.9,13.52-3.04-5.02c.05-.02.1-.03.15-.05.51-.16.98-.4,1.39-.72.43-.33.79-.77,1.08-1.31.28-.54.43-1.22.43-2.01,0-.71-.12-1.33-.37-1.86-.24-.52-.56-.95-.92-1.28-.38-.34-.8-.61-1.27-.78-.42-.16-.84-.28-1.26-.35-.4-.07-.77-.11-1.12-.13-.32-.01-.58-.02-.77-.02h-4.42v15.38h2.9v-6.53h1.12l3.87,6.53h4.54l1.55-3.65h6.21l1.5,3.65h6.05v-6.53h2.17c.61,0,1.21-.08,1.78-.25.59-.17,1.13-.43,1.59-.78.48-.36.86-.84,1.15-1.4.28-.57.42-1.23.42-1.97,0-.86-.18-1.59-.53-2.19-.34-.58-.79-1.05-1.34-1.39ZM99.04,97.3l1.97-4.63,1.91,4.63h-3.88ZM91.01,93.33c-.05.16-.14.32-.29.47-.15.16-.39.31-.69.43-.33.13-.77.2-1.34.2h-1.91v-3.28h1.91c.57,0,1.02.07,1.34.2.31.12.54.27.69.42.15.15.24.31.29.46.06.22.09.4.09.55s-.03.34-.09.54ZM115.82,92.81c0,.31-.05.57-.15.76h0c-.1.2-.24.35-.4.47-.19.13-.41.23-.66.29-.29.07-.58.1-.88.1h-2.11v-3.28h2.03c.3,0,.6.04.9.11.26.06.49.16.68.31.18.13.33.29.45.51.1.19.16.43.16.73Z"/>
      <polygon class="cls-1" points="142.21 88.36 138.4 94.21 134.68 88.36 131.74 88.36 131.21 88.36 128.84 88.36 128.84 94.43 122.76 94.43 122.76 88.36 119.86 88.36 119.86 103.74 122.76 103.74 122.76 97.21 128.84 97.21 128.84 103.74 131.74 103.74 131.74 89.18 136.94 97.24 136.94 103.74 139.84 103.74 139.84 97.24 145.57 88.36 142.21 88.36"/>
    </g>
  </g>
</svg>